<svg fill="none" xmlns="http://www.w3.org/2000/svg" viewBox="0 0 450 380">
<path fill="#fff" d="M448.72,116.56C443.47,133,438.19,149.42,433,165.87c-7.75,24.52-15.39,49.07-23.16,73.59-8.06,25.45-27.27,40.08-53.92,40.2q-82.67.34-165.33,0c-27.27-.11-46.69-15.1-54.41-41.23q-27.54-93.18-55-186.4c-3.29-11.16-8.57-15.1-20.31-15.11-13.71,0-27.41,0-41.12,0-10.25,0-18.57-7.63-19-17.25C.28,8.84,7.57-.24,18.21-.41,36-.69,53.87-1.32,71.48.47,93,2.65,107.81,15.34,115.2,35.72c4,11.05,7,22.48,10.11,33.82,1,3.57,2.49,4.69,6.23,4.69q128.6-.18,257.19-.08c8.74,0,17.51-.2,26.22.36,16.4,1,28.78,11.76,32.92,27.82a14.22,14.22,0,0,0,.85,2Z"/>
<path fill="#fff" d="M336.6,298.21a37.36,37.36,0,1,1-37.39,37.61A37.59,37.59,0,0,1,336.6,298.21Z"/>
<path fill="#fff" d="M206,298.2a37.36,37.36,0,0,1,.57,74.72c-21,.09-37.79-16.33-37.83-37.05A37.26,37.26,0,0,1,206,298.2Z"/>
</svg>
